<svg width="17" height="25" viewBox="0 0 17 25" fill="none" xmlns="http://www.w3.org/2000/svg">
    <path fill-rule="evenodd" clip-rule="evenodd" d="M8.55248 6.10889C10.4202 6.10889 11.9209 7.58496 11.9209 9.54785C11.9209 11.4321 10.4202 13.0029 8.55248 13.0029C6.6704 13.0029 5.16874 11.4321 5.16874 9.54785C5.16874 7.58496 6.6704 6.10889 8.55248 6.10889ZM16.9847 8.66846C16.9847 3.84717 13.2377 0 8.55248 0C3.86122 0 0.0153207 3.84717 0.0153207 8.66846C0.0153207 8.87256 0.0153216 9.0332 0.0153199 9.35937C0.0153199 14.0864 8.55248 25 8.55248 25C8.55248 25 16.9847 14.0864 16.9847 9.35937V8.66846Z" fill="#009ee3"/>
</svg>